{"scene":0,"scenes":[{"nodes":[0]}],"asset":{"version":"2.0","generator":"https://github.com/mikedh/trimesh"},"accessors":[{"componentType":5125,"type":"SCALAR","bufferView":0,"count":708,"max":[235],"min":[0]},{"componentType":5126,"type":"VEC3","byteOffset":0,"bufferView":1,"count":236,"max":[7.664379119873047,4.879006862640381,0.0009999870089814067],"min":[0.32625308632850647,0.28989818692207336,0.0009999870089814067]},{"componentType":5126,"type":"VEC2","byteOffset":0,"bufferView":3,"count":236,"max":[7.664379119873047,0.710101842880249],"min":[0.32625308632850647,-3.879006862640381]},{"componentType":5126,"count":236,"type":"VEC3","byteOffset":0,"bufferView":4,"max":[0.0,0.0,1.0],"min":[0.0,0.0,1.0]},{"componentType":5126,"type":"VEC3","byteOffset":0,"bufferView":5,"count":236,"max":[7.664379119873047,4.879006862640381,0.0014999499544501305],"min":[0.32625308632850647,0.28989818692207336,0.0014999499544501305]},{"componentType":5126,"type":"VEC2","byteOffset":0,"bufferView":7,"count":236,"max":[7.664379119873047,0.710101842880249],"min":[0.32625308632850647,-3.879006862640381]},{"componentType":5126,"type":"VEC3","byteOffset":0,"bufferView":8,"count":236,"max":[6.979125022888184,4.193317890167236,0.0014999499544501305],"min":[1.0120439529418945,0.975651204586029,0.0014999499544501305]},{"componentType":5126,"type":"VEC2","byteOffset":0,"bufferView":9,"count":236,"max":[6.979125022888184,0.024348795413970947],"min":[1.0120439529418945,-3.1940112113952637]},{"componentType":5125,"type":"SCALAR","bufferView":10,"count":1044,"max":[695],"min":[0]},{"componentType":5126,"type":"VEC3","byteOffset":0,"bufferView":11,"count":696,"max":[7.294696807861328,4.510700225830078,0.0014999499544501305],"min":[0.6946035027503967,0.6585239171981812,0.0014999499544501305]},{"componentType":5126,"type":"VEC2","byteOffset":0,"bufferView":13,"count":696,"max":[1.0,1.0],"min":[0.0,-1.0]},{"componentType":5126,"count":696,"type":"VEC3","byteOffset":0,"bufferView":14,"max":[0.0,0.0,1.0],"min":[0.0,0.0,1.0]},{"componentType":5125,"type":"SCALAR","bufferView":15,"count":24,"max":[15],"min":[0]},{"componentType":5126,"type":"VEC3","byteOffset":0,"bufferView":16,"count":16,"max":[8.575420379638672,5.795438766479492,1.0],"min":[-0.5873531103134155,-0.6125186085700989,0.0]},{"componentType":5126,"type":"VEC2","byteOffset":0,"bufferView":18,"count":16,"max":[1.0,1.0],"min":[0.0,0.0]},{"componentType":5126,"count":16,"type":"VEC3","byteOffset":0,"bufferView":19,"max":[1.0,1.0,0.0],"min":[-1.0,-1.0,0.0]}],"meshes":[{"name":"roadShape-mesh-mesh","extras":{"units":"meters","processed":true},"primitives":[{"attributes":{"POSITION":1,"TEXCOORD_0":2,"NORMAL":3},"indices":0,"mode":4,"material":0}]},{"name":"olShape-mesh-mesh","extras":{"units":"meters","processed":true},"primitives":[{"attributes":{"POSITION":4,"TEXCOORD_0":5,"NORMAL":3},"indices":0,"mode":4,"material":1}]},{"name":"ilShape-mesh-mesh","extras":{"units":"meters","processed":true},"primitives":[{"attributes":{"POSITION":6,"TEXCOORD_0":7,"NORMAL":3},"indices":0,"mode":4,"material":1}]},{"name":"clShape-mesh-mesh","extras":{"units":"meters","processed":true},"primitives":[{"attributes":{"POSITION":9,"TEXCOORD_0":10,"NORMAL":11},"indices":8,"mode":4,"material":2}]},{"name":"wallShape-mesh-mesh","extras":{"units":"meters","processed":true},"primitives":[{"attributes":{"POSITION":13,"TEXCOORD_0":14,"NORMAL":15},"indices":12,"mode":4,"material":3}]}],"images":[{"bufferView":2,"mimeType":"image/png"},{"bufferView":6,"mimeType":"image/png"},{"bufferView":12,"mimeType":"image/png"},{"bufferView":17,"mimeType":"image/png"}],"textures":[{"source":0},{"source":1},{"source":2},{"source":3}],"materials":[{"pbrMetallicRoughness":{"baseColorTexture":{"index":0},"baseColorFactor":[1.0,1.0,1.0,1.0],"roughnessFactor":0.19611613513818404,"metallicFactor":0.0},"emissiveFactor":[0.0,0.0,0.0],"doubleSided":false},{"pbrMetallicRoughness":{"baseColorTexture":{"index":1},"baseColorFactor":[1.0,1.0,1.0,1.0],"roughnessFactor":0.19611613513818404,"metallicFactor":0.0},"emissiveFactor":[0.0,0.0,0.0],"doubleSided":false},{"pbrMetallicRoughness":{"baseColorTexture":{"index":2},"baseColorFactor":[1.0,1.0,1.0,1.0],"roughnessFactor":0.19611613513818404,"metallicFactor":0.0},"emissiveFactor":[0.0,0.0,0.0],"doubleSided":false},{"pbrMetallicRoughness":{"baseColorTexture":{"index":3},"baseColorFactor":[1.0,1.0,1.0,1.0],"roughnessFactor":0.19611613513818404,"metallicFactor":0.0},"emissiveFactor":[0.0,0.0,0.0],"doubleSided":false}],"nodes":[{"name":"world","children":[1,2,3,4,5]},{"name":"roadShape-mesh-mesh","mesh":0,"matrix":[1.0,0.0,0.0,0.0,0.0,6.123233995736766e-17,-1.0,0.0,0.0,1.0,6.123233995736766e-17,0.0,0.0,0.0,0.0,1.0]},{"name":"olShape-mesh-mesh","mesh":1,"matrix":[1.0,0.0,0.0,0.0,0.0,6.123233995736766e-17,-1.0,0.0,0.0,1.0,6.123233995736766e-17,0.0,0.0,0.0,0.0,1.0]},{"name":"ilShape-mesh-mesh","mesh":2,"matrix":[1.0,0.0,0.0,0.0,0.0,6.123233995736766e-17,-1.0,0.0,0.0,1.0,6.123233995736766e-17,0.0,0.0,0.0,0.0,1.0]},{"name":"clShape-mesh-mesh","mesh":3,"matrix":[1.0,0.0,0.0,0.0,0.0,6.123233995736766e-17,-1.0,0.0,0.0,1.0,6.123233995736766e-17,0.0,0.0,0.0,0.0,1.0]},{"name":"wallShape-mesh-mesh","mesh":4,"matrix":[1.0,0.0,0.0,0.0,0.0,6.123233995736766e-17,-1.0,0.0,0.0,1.0,6.123233995736766e-17,0.0,0.0,0.0,0.0,1.0]}],"buffers":[{"uri":"gltf_buffer_0.bin","byteLength":2832},{"uri":"gltf_buffer_1.bin","byteLength":2832},{"uri":"gltf_buffer_2.bin","byteLength":1506900},{"uri":"gltf_buffer_3.bin","byteLength":1888},{"uri":"gltf_buffer_4.bin","byteLength":2832},{"uri":"gltf_buffer_5.bin","byteLength":2832},{"uri":"gltf_buffer_6.bin","byteLength":1633284},{"uri":"gltf_buffer_7.bin","byteLength":1888},{"uri":"gltf_buffer_8.bin","byteLength":2832},{"uri":"gltf_buffer_9.bin","byteLength":1888},{"uri":"gltf_buffer_10.bin","byteLength":4176},{"uri":"gltf_buffer_11.bin","byteLength":8352},{"uri":"gltf_buffer_12.bin","byteLength":1234516},{"uri":"gltf_buffer_13.bin","byteLength":5568},{"uri":"gltf_buffer_14.bin","byteLength":8352},{"uri":"gltf_buffer_15.bin","byteLength":96},{"uri":"gltf_buffer_16.bin","byteLength":192},{"uri":"gltf_buffer_17.bin","byteLength":92},{"uri":"gltf_buffer_18.bin","byteLength":128},{"uri":"gltf_buffer_19.bin","byteLength":192}],"bufferViews":[{"buffer":0,"byteOffset":0,"byteLength":2832},{"buffer":1,"byteOffset":0,"byteLength":2832},{"buffer":2,"byteOffset":0,"byteLength":1506900},{"buffer":3,"byteOffset":0,"byteLength":1888},{"buffer":4,"byteOffset":0,"byteLength":2832},{"buffer":5,"byteOffset":0,"byteLength":2832},{"buffer":6,"byteOffset":0,"byteLength":1633284},{"buffer":7,"byteOffset":0,"byteLength":1888},{"buffer":8,"byteOffset":0,"byteLength":2832},{"buffer":9,"byteOffset":0,"byteLength":1888},{"buffer":10,"byteOffset":0,"byteLength":4176},{"buffer":11,"byteOffset":0,"byteLength":8352},{"buffer":12,"byteOffset":0,"byteLength":1234516},{"buffer":13,"byteOffset":0,"byteLength":5568},{"buffer":14,"byteOffset":0,"byteLength":8352},{"buffer":15,"byteOffset":0,"byteLength":96},{"buffer":16,"byteOffset":0,"byteLength":192},{"buffer":17,"byteOffset":0,"byteLength":92},{"buffer":18,"byteOffset":0,"byteLength":128},{"buffer":19,"byteOffset":0,"byteLength":192}]}